<?xml version="1.0" encoding="UTF-8"?>
<svg width="36px" height="36px" viewBox="0 0 36 36" version="1.1" xmlns="http://www.w3.org/2000/svg" xmlns:xlink="http://www.w3.org/1999/xlink">
    <!-- Generator: Sketch 52.5 (67469) - http://www.bohemiancoding.com/sketch -->
    <title>Group 59</title>
    <desc>Created with Sketch.</desc>
    <g id="Landing" stroke="none" stroke-width="1" fill="none" fill-rule="evenodd" stroke-linecap="round" stroke-linejoin="round">
        <g id="Pyrismic-Landing-Desktop" transform="translate(-549.000000, -1974.000000)" stroke="#5FF4EE" stroke-width="2.4">
            <g id="Group-18" transform="translate(71.000000, 1450.000000)">
                <g id="Group-21" transform="translate(0.000000, 252.000000)">
                    <g id="Group-13-Copy" transform="translate(480.000000, 271.000000)">
                        <g id="Group-59" transform="translate(0.000000, 3.000000)">
                            <path d="M24.5345455,11.5553455 C23.4058182,12.6840727 21.5745455,12.6840727 20.4443636,11.5553455 C19.3156364,10.4266182 19.3156364,8.59534545 20.4443636,7.46516364 C21.5745455,6.33643636 23.4058182,6.33643636 24.5345455,7.46516364 C25.6632727,8.59534545 25.6632727,10.4266182 24.5345455,11.5553455 Z" id="Stroke" opacity="0.639999986"></path>
                            <path d="M10.2234182,15.6434909 L0.000872727275,13.5998545" id="Stroke" opacity="0.800000012"></path>
                            <polyline id="Stroke" points="0.000436363635 13.5994182 6.13425455 7.4656 16.3568 5.42196364"></polyline>
                            <path d="M16.3569455,21.7770182 L18.4005818,31.9995636" id="Stroke" opacity="0.800000012"></path>
                            <polyline id="Stroke" points="18.4010182 32 24.5348364 25.8661818 26.5784727 15.6436364"></polyline>
                            <path d="M16.3569455,21.7770182 C16.3569455,21.7770182 22.7307636,19.4933818 28.1431273,14.0810182 C33.5540364,8.66865455 31.6907636,0.309381818 31.6907636,0.309381818 C31.6907636,0.309381818 23.3314909,-1.55389091 17.9191273,3.85847273 C12.5082182,9.26938182 10.2231273,15.6432 10.2231273,15.6432" id="Stroke"></path>
                            <path d="M11.8711273,25.4843636 C11.9147636,22.5389091 9.4624,20.0850909 6.51549091,20.1287273 C5.42894545,20.1461818 4.28130909,20.4894545 3.28930909,21.4843636 C-0.438690909,25.2109091 0.195490909,31.8058182 0.195490909,31.8058182 C0.195490909,31.8058182 6.7904,32.4385455 10.5169455,28.712 C11.5104,27.7185455 11.8536727,26.5709091 11.8711273,25.4843636 Z" id="Stroke" opacity="0.639999986"></path>
                        </g>
                    </g>
                </g>
            </g>
        </g>
    </g>
</svg>